<!DOCTYPE svg PUBLIC "-//W3C//DTD SVG 1.1//EN" "http://www.w3.org/Graphics/SVG/1.1/DTD/svg11.dtd">
<!-- Uploaded to: SVG Repo, www.svgrepo.com, Transformed by: SVG Repo Mixer Tools -->
<svg fill="#AE8A3B" height="800px" width="800px" version="1.1" id="Layer_1" xmlns="http://www.w3.org/2000/svg" xmlns:xlink="http://www.w3.org/1999/xlink" viewBox="0 0 503.607 503.607" xml:space="preserve" stroke="#AE8A3B">
<g id="SVGRepo_bgCarrier" stroke-width="0"/>
<g id="SVGRepo_tracerCarrier" stroke-linecap="round" stroke-linejoin="round"/>
<g id="SVGRepo_iconCarrier"> <g transform="translate(1 1)"> <g> <g> <path d="M200.443,267.59h100.721c5.036,0,8.393-3.357,8.393-8.393v-50.361c0-5.036-3.357-8.393-8.393-8.393H200.443 c-5.036,0-8.393,3.357-8.393,8.393v50.361C192.049,264.233,195.407,267.59,200.443,267.59z M208.836,217.229h83.934v33.574 h-83.934V217.229z"/> <path d="M477.426,108.115h-41.967h-33.574h-41.967V49.361c0-14.269-10.911-25.18-25.18-25.18H166.869 c-14.269,0-25.18,10.911-25.18,25.18v58.754H99.721H66.148H24.18C9.911,108.115-1,119.026-1,133.295v49.521v227.462v41.967 c0,14.269,10.911,25.18,25.18,25.18h50.361h41.967h33.574h201.443h33.574h41.967h50.361c14.269,0,25.18-10.911,25.18-25.18 v-41.967V183.656v-50.361C502.607,119.026,491.695,108.115,477.426,108.115z M393.492,460.639v-268.59h8.393 c5.036,0,8.393-3.357,8.393-8.393v-58.754h17.513c4.502,31.275,27.679,57.167,58.028,65.593v212.117 c-31.275,4.502-57.167,27.679-65.593,58.028H393.492z M477.426,124.902c5.036,0,8.393,3.357,8.393,8.393v39.449 c-20.984-7.554-36.931-26.02-41.128-47.843H477.426z M393.492,175.262h-8.393h-33.574h-8.393v-50.361h8.393h41.967V175.262z M166.869,192.049c5.036,0,8.393-3.357,8.393-8.393v-58.754h151.082v58.754c0,5.036,3.357,8.393,8.393,8.393h8.393v268.59 H158.475v-268.59H166.869z M158.475,49.361c0-5.036,3.357-8.393,8.393-8.393h167.869c5.036,0,8.393,3.357,8.393,8.393v58.754 h-8.393H166.869h-8.393V49.361z M150.082,124.902h8.393v50.361h-8.393h-33.574h-8.393v-50.361H150.082z M80.677,460.639 c-7.806-29.994-33.891-52.434-64.89-57.735V189.662c30.257-8.342,52.833-33.587,57.876-64.76h17.665v58.754 c0,5.036,3.357,8.393,8.393,8.393h8.393v268.59H80.677z M15.787,133.295c0-5.036,3.357-8.393,8.393-8.393h31.895 c-4.197,21.823-19.305,39.449-40.289,47.003V133.295z M24.18,460.639c-5.036,0-8.393-3.357-8.393-8.393v-31.895 c21.823,4.197,40.289,20.144,47.843,40.289H24.18z M124.902,460.639v-268.59h16.787v268.59H124.902z M359.918,460.639v-268.59 h16.787v268.59H359.918z M437.977,460.639c7.554-20.984,26.02-36.092,47.843-40.289v31.895c0,4.197-4.197,8.393-8.393,8.393 H437.977z"/> </g> </g> </g> </g>
</svg>